<mxfile host="app.diagrams.net" agent="Mozilla/5.0 (Windows NT 10.0; Win64; x64) AppleWebKit/537.36 (KHTML, like Gecko) Chrome/135.0.0.0 Safari/537.36" version="26.2.10">
  <diagram name="PÃ¡gina-1" id="8T7hV96MhzQqUz34Ku4o">
    <mxGraphModel dx="1044" dy="527" grid="1" gridSize="10" guides="1" tooltips="1" connect="1" arrows="1" fold="1" page="1" pageScale="1" pageWidth="827" pageHeight="1169" math="0" shadow="0">
      <root>
        <mxCell id="0" />
        <mxCell id="1" parent="0" />
        <mxCell id="C636DdSbYif78sNLo1q--1" value="/root" style="text;html=1;align=center;verticalAlign=middle;resizable=0;points=[];autosize=1;strokeColor=none;fillColor=none;" vertex="1" parent="1">
          <mxGeometry x="100" y="40" width="50" height="30" as="geometry" />
        </mxCell>
        <mxCell id="C636DdSbYif78sNLo1q--2" value="/back" style="text;html=1;align=center;verticalAlign=middle;resizable=0;points=[];autosize=1;strokeColor=none;fillColor=none;" vertex="1" parent="1">
          <mxGeometry x="150" y="90" width="50" height="30" as="geometry" />
        </mxCell>
        <mxCell id="C636DdSbYif78sNLo1q--3" value="/kalio_api" style="text;html=1;align=center;verticalAlign=middle;resizable=0;points=[];autosize=1;strokeColor=none;fillColor=none;" vertex="1" parent="1">
          <mxGeometry x="200" y="120" width="70" height="30" as="geometry" />
        </mxCell>
        <mxCell id="C636DdSbYif78sNLo1q--4" value="/kalio_app" style="text;html=1;align=center;verticalAlign=middle;resizable=0;points=[];autosize=1;strokeColor=none;fillColor=none;" vertex="1" parent="1">
          <mxGeometry x="195" y="170" width="80" height="30" as="geometry" />
        </mxCell>
        <mxCell id="C636DdSbYif78sNLo1q--5" value="/front" style="text;html=1;align=center;verticalAlign=middle;resizable=0;points=[];autosize=1;strokeColor=none;fillColor=none;" vertex="1" parent="1">
          <mxGeometry x="150" y="140" width="50" height="30" as="geometry" />
        </mxCell>
        <mxCell id="C636DdSbYif78sNLo1q--6" style="edgeStyle=orthogonalEdgeStyle;rounded=0;orthogonalLoop=1;jettySize=auto;html=1;entryX=0;entryY=0.587;entryDx=0;entryDy=0;entryPerimeter=0;" edge="1" parent="1" source="C636DdSbYif78sNLo1q--1" target="C636DdSbYif78sNLo1q--2">
          <mxGeometry relative="1" as="geometry" />
        </mxCell>
        <mxCell id="C636DdSbYif78sNLo1q--7" style="edgeStyle=orthogonalEdgeStyle;rounded=0;orthogonalLoop=1;jettySize=auto;html=1;entryX=0;entryY=0.707;entryDx=0;entryDy=0;entryPerimeter=0;" edge="1" parent="1" source="C636DdSbYif78sNLo1q--1" target="C636DdSbYif78sNLo1q--5">
          <mxGeometry relative="1" as="geometry" />
        </mxCell>
        <mxCell id="C636DdSbYif78sNLo1q--8" style="edgeStyle=orthogonalEdgeStyle;rounded=0;orthogonalLoop=1;jettySize=auto;html=1;entryX=0;entryY=0.667;entryDx=0;entryDy=0;entryPerimeter=0;" edge="1" parent="1" source="C636DdSbYif78sNLo1q--2" target="C636DdSbYif78sNLo1q--3">
          <mxGeometry relative="1" as="geometry" />
        </mxCell>
        <mxCell id="C636DdSbYif78sNLo1q--9" style="edgeStyle=orthogonalEdgeStyle;rounded=0;orthogonalLoop=1;jettySize=auto;html=1;" edge="1" parent="1" source="C636DdSbYif78sNLo1q--5">
          <mxGeometry relative="1" as="geometry">
            <mxPoint x="200" y="190" as="targetPoint" />
          </mxGeometry>
        </mxCell>
      </root>
    </mxGraphModel>
  </diagram>
</mxfile>
